<svg width="24" height="25" viewBox="0 0 24 25" fill="none" xmlns="http://www.w3.org/2000/svg">
<path d="M8.52002 14.13C7.48002 14.13 6.63202 13.185 6.63202 12.029C6.63202 10.873 7.45902 9.92699 8.52102 9.92699C9.57102 9.92699 10.431 10.872 10.41 12.029C10.41 13.185 9.57102 14.13 8.52002 14.13ZM15.494 14.129C14.454 14.129 13.604 13.184 13.604 12.028C13.604 10.872 14.433 9.92599 15.494 9.92599C16.544 9.92599 17.404 10.871 17.384 12.028C17.384 13.184 16.555 14.129 15.494 14.129ZM10.125 4.60499L9.81702 4.04199L9.18302 4.14799C7.74633 4.38811 6.34803 4.81857 5.02502 5.42799L4.79702 5.53299L4.65502 5.74299C2.04202 9.59599 1.32502 13.391 1.68002 17.118L1.71902 17.525L2.04902 17.765C3.58612 18.893 5.30303 19.7528 7.12702 20.308L7.91702 20.55L9.03002 17.834C10.94 18.306 13.06 18.306 14.969 17.834L16.076 20.551L16.866 20.309C18.6916 19.7552 20.4095 18.8946 21.946 17.764L22.273 17.526L22.313 17.124C22.749 12.804 21.616 9.04099 19.355 5.73999L19.213 5.53199L18.985 5.42799C17.6624 4.8211 16.2658 4.39074 14.831 4.14799L14.213 4.04499L13.899 4.58699C13.811 4.73699 13.722 4.90699 13.636 5.07999C12.5512 4.96879 11.4578 4.96879 10.373 5.07999C10.288 4.90999 10.203 4.74599 10.125 4.60499ZM6.71502 16.894C6.91202 17.008 7.12002 17.12 7.32502 17.222L6.87602 18.318C5.66152 17.8755 4.50931 17.2779 3.44802 16.54C3.22302 13.402 3.86102 10.235 6.01202 6.96999C6.9199 6.57052 7.86612 6.26461 8.83602 6.05699C8.89602 6.18199 8.95202 6.30499 8.99802 6.41299L9.27102 7.05599L9.96302 6.95499C11.3191 6.75621 12.6969 6.75621 14.053 6.95499L14.743 7.05499L15.015 6.41299C15.062 6.30099 15.117 6.17899 15.175 6.05699C16.152 6.26699 17.098 6.57699 18.003 6.97199C19.878 9.79199 20.824 12.938 20.549 16.539C19.4872 17.2774 18.3343 17.8753 17.119 18.318L16.674 17.223C16.88 17.121 17.088 17.009 17.287 16.894C17.777 16.612 18.304 16.26 18.64 15.924L17.36 14.644C17.197 14.808 16.837 15.064 16.383 15.326C15.939 15.582 15.498 15.789 15.216 15.882C13.213 16.545 10.788 16.545 8.78402 15.882C8.50302 15.789 8.06202 15.582 7.61802 15.326C7.16402 15.065 6.80402 14.808 6.64002 14.644L5.36002 15.924C5.69702 16.26 6.22502 16.612 6.71502 16.894Z" fill="#358bb9"/>
</svg>
