<svg width="24" height="25" viewBox="0 0 24 25" fill="none" xmlns="http://www.w3.org/2000/svg">
<path fill-rule="evenodd" clip-rule="evenodd" d="M10.9341 3.21807C12.0125 2.13974 13.475 1.53394 15 1.53394H18C18.4142 1.53394 18.75 1.86972 18.75 2.28394V6.28394C18.75 6.69815 18.4142 7.03394 18 7.03394H15C14.9337 7.03394 14.8701 7.06028 14.8232 7.10716C14.7763 7.15404 14.75 7.21763 14.75 7.28394V9.53394H18C18.231 9.53394 18.449 9.64034 18.5912 9.82238C18.7333 10.0044 18.7836 10.2418 18.7276 10.4658L17.7276 14.4658C17.6441 14.7997 17.3442 15.0339 17 15.0339H14.75V22.2839C14.75 22.6982 14.4142 23.0339 14 23.0339H10C9.58579 23.0339 9.25 22.6982 9.25 22.2839V15.0339H7C6.58579 15.0339 6.25 14.6982 6.25 14.2839V10.2839C6.25 9.86972 6.58579 9.53394 7 9.53394H9.25V7.28394C9.25 5.75894 9.8558 4.29641 10.9341 3.21807ZM15 3.03394C13.8728 3.03394 12.7918 3.4817 11.9948 4.27873C11.1978 5.07576 10.75 6.15677 10.75 7.28394V10.2839C10.75 10.6981 10.4142 11.0339 10 11.0339H7.75V13.5339H10C10.4142 13.5339 10.75 13.8697 10.75 14.2839V21.5339H13.25V14.2839C13.25 13.8697 13.5858 13.5339 14 13.5339H16.4144L17.0394 11.0339H14C13.5858 11.0339 13.25 10.6981 13.25 10.2839V7.28394C13.25 6.81981 13.4344 6.37469 13.7626 6.0465C14.0908 5.71831 14.5359 5.53394 15 5.53394H17.25V3.03394H15Z" fill="#F8FBFB"/>
</svg>
