<svg width="24" height="25" viewBox="0 0 24 25" fill="none" xmlns="http://www.w3.org/2000/svg">
<path d="M12.001 9.28394C11.2054 9.28394 10.4423 9.60001 9.87968 10.1626C9.31707 10.7252 9.001 11.4883 9.001 12.2839C9.001 13.0796 9.31707 13.8426 9.87968 14.4053C10.4423 14.9679 11.2054 15.2839 12.001 15.2839C12.7967 15.2839 13.5597 14.9679 14.1223 14.4053C14.6849 13.8426 15.001 13.0796 15.001 12.2839C15.001 11.4883 14.6849 10.7252 14.1223 10.1626C13.5597 9.60001 12.7967 9.28394 12.001 9.28394ZM12.001 7.28394C13.3271 7.28394 14.5989 7.81072 15.5365 8.7484C16.4742 9.68608 17.001 10.9579 17.001 12.2839C17.001 13.61 16.4742 14.8818 15.5365 15.8195C14.5989 16.7572 13.3271 17.2839 12.001 17.2839C10.6749 17.2839 9.40315 16.7572 8.46547 15.8195C7.52779 14.8818 7.001 13.61 7.001 12.2839C7.001 10.9579 7.52779 9.68608 8.46547 8.7484C9.40315 7.81072 10.6749 7.28394 12.001 7.28394ZM18.501 7.03394C18.501 7.36546 18.3693 7.6834 18.1349 7.91782C17.9005 8.15224 17.5825 8.28394 17.251 8.28394C16.9195 8.28394 16.6015 8.15224 16.3671 7.91782C16.1327 7.6834 16.001 7.36546 16.001 7.03394C16.001 6.70242 16.1327 6.38447 16.3671 6.15005C16.6015 5.91563 16.9195 5.78394 17.251 5.78394C17.5825 5.78394 17.9005 5.91563 18.1349 6.15005C18.3693 6.38447 18.501 6.70242 18.501 7.03394ZM12.001 4.28394C9.527 4.28394 9.123 4.29094 7.972 4.34194C7.188 4.37894 6.662 4.48394 6.174 4.67394C5.76583 4.82431 5.39672 5.06457 5.094 5.37694C4.78127 5.67955 4.54066 6.04867 4.39 6.45694C4.2 6.94694 4.095 7.47194 4.059 8.25494C4.007 9.35894 4 9.74494 4 12.2839C4 14.7589 4.007 15.1619 4.058 16.3129C4.095 17.0959 4.2 17.6229 4.389 18.1099C4.559 18.5449 4.759 18.8579 5.091 19.1899C5.428 19.5259 5.741 19.7269 6.171 19.8929C6.665 20.0839 7.191 20.1899 7.971 20.2259C9.075 20.2779 9.461 20.2839 12 20.2839C14.475 20.2839 14.878 20.2769 16.029 20.2259C16.811 20.1889 17.337 20.0839 17.826 19.8949C18.2342 19.7446 18.6033 19.5043 18.906 19.1919C19.243 18.8559 19.444 18.5429 19.61 18.1119C19.8 17.6199 19.906 17.0939 19.942 16.3119C19.994 15.2089 20 14.8219 20 12.2839C20 9.80994 19.993 9.40594 19.942 8.25494C19.905 7.47294 19.799 6.94494 19.61 6.45694C19.4596 6.04877 19.2194 5.67966 18.907 5.37694C18.6044 5.06421 18.2353 4.8236 17.827 4.67294C17.337 4.48294 16.811 4.37794 16.029 4.34194C14.926 4.28994 14.54 4.28394 12 4.28394M12 2.28394C14.717 2.28394 15.056 2.29394 16.123 2.34394C17.187 2.39394 17.913 2.56094 18.55 2.80894C19.21 3.06294 19.766 3.40694 20.322 3.96194C20.8307 4.46167 21.2242 5.06641 21.475 5.73394C21.722 6.37094 21.89 7.09694 21.94 8.16194C21.987 9.22794 22 9.56694 22 12.2839C22 15.0009 21.99 15.3399 21.94 16.4059C21.89 17.4719 21.722 18.1959 21.475 18.8339C21.2242 19.5015 20.8307 20.1062 20.322 20.6059C19.8223 21.1146 19.2175 21.5081 18.55 21.7589C17.913 22.0059 17.187 22.1739 16.123 22.2239C15.056 22.2709 14.717 22.2839 12 22.2839C9.283 22.2839 8.944 22.2739 7.877 22.2239C6.813 22.1739 6.088 22.0059 5.45 21.7589C4.78247 21.5081 4.17773 21.1146 3.678 20.6059C3.16931 20.1062 2.77582 19.5015 2.525 18.8339C2.277 18.1969 2.11 17.4709 2.06 16.4059C2.012 15.3399 2 15.0009 2 12.2839C2 9.56694 2.01 9.22794 2.06 8.16194C2.11 7.09594 2.277 6.37194 2.525 5.73394C2.77582 5.06641 3.16931 4.46167 3.678 3.96194C4.17773 3.45324 4.78247 3.05975 5.45 2.80894C6.087 2.56094 6.812 2.39394 7.877 2.34394C8.945 2.29694 9.284 2.28394 12.001 2.28394" fill="#F8FBFB"/>
</svg>
