<svg width="78" height="59" viewBox="0 0 78 59" fill="none" xmlns="http://www.w3.org/2000/svg">
<path fill-rule="evenodd" clip-rule="evenodd" d="M28.989 33.8035C24.0968 35.1194 20.1694 36.0114 14.8688 37.0106C13.079 37.348 11.5948 37.6507 11.5707 37.6831C11.5464 37.7155 11.3778 38.5316 11.1956 39.4961C11.0135 40.4609 10.6627 41.7455 10.4159 42.3506L9.96729 43.451L8.16085 43.6526C6.11042 43.8815 5.65205 44.1232 5.2442 45.191C4.80236 46.3477 4.96102 47.4237 5.71271 48.3675C5.9771 48.6995 6.24375 48.8207 6.82532 48.8724C7.24596 48.9101 12.8098 48.4083 19.1895 47.7577L30.7889 46.5749L31.0555 47.0641C32.4324 49.5908 34.2535 51.1064 36.7188 51.7775C37.6568 52.0328 40.589 52.0319 41.5293 51.7762C43.9894 51.1068 45.8121 49.589 47.188 47.0641L47.4547 46.5749L59.0541 47.7577C65.4338 48.4083 70.9976 48.9101 71.4182 48.8724C71.9979 48.8208 72.2683 48.6986 72.5354 48.3675C73.5157 47.1524 73.4448 45.2569 72.3823 44.2785C72.0137 43.939 71.6536 43.8352 70.3603 43.6955C69.495 43.6019 68.7237 43.4971 68.6464 43.4625C68.3579 43.3335 67.6275 41.1538 67.311 39.4773C67.1309 38.523 66.965 37.7173 66.9423 37.6869C66.9197 37.6564 65.2256 37.3113 63.1776 36.9199C59.1726 36.1548 55.4888 35.3327 51.4545 34.3039C49.0743 33.697 48.8005 33.663 46.9214 33.7409C45.4015 33.8042 44.6823 33.9178 43.9251 34.2143C42.5369 34.758 41.031 35.8559 40.0699 37.0248L39.2551 38.0159L38.4218 36.9995C37.5155 35.8939 35.7422 34.6306 34.3887 34.126C33.5949 33.8302 29.7449 33.6003 28.989 33.8035ZM33.0544 36.8259C33.8361 37.0091 34.5921 37.3338 35.2698 37.7577C36.3239 38.4169 37.5606 39.5984 37.9935 40.9176C38.1539 41.4067 40.3148 41.5549 40.5939 40.9176C40.997 39.7156 41.8826 38.6435 43.168 37.8216C44.6872 36.85 45.4423 36.6434 47.388 36.6667C48.749 36.683 49.568 36.8207 51.8545 37.4174C55.3967 38.3416 57.8871 38.8998 61.5873 39.5988C63.2005 39.9034 64.6635 40.2131 64.8385 40.2869C65.0864 40.3914 65.236 40.7243 65.519 41.8016C65.8316 42.992 65.8519 43.1823 65.6659 43.1823C65.5474 43.1823 61.048 42.7398 55.6675 42.1992C45.8936 41.2171 45.8841 41.2165 45.3153 41.5549C44.8151 41.8521 44.6887 42.0553 44.2753 43.2263C43.355 45.8325 41.9744 46.7888 39.1255 46.7937C36.3757 46.7983 34.8392 45.787 34.053 43.4543C33.661 42.2915 33.268 41.7016 32.6886 41.4067C32.4149 41.2673 29.8477 41.4687 22.5577 42.2012C17.1872 42.7407 12.7497 43.1823 12.6963 43.1823C12.6429 43.1823 12.7097 42.8364 12.8445 42.4135C12.9793 41.9908 13.1327 41.3812 13.1854 41.0589C13.2446 40.6969 13.3911 40.4177 13.5688 40.3287C13.727 40.2493 14.8464 40.0047 16.0563 39.7852C18.9844 39.2537 23.2907 38.3033 26.3224 37.5191C30.3552 36.4761 31.1937 36.3897 33.0544 36.8259Z" fill="#E2E7E9"/>
<path fill-rule="evenodd" clip-rule="evenodd" d="M25.8098 34.6326C26.8384 34.3736 27.8894 34.0992 28.989 33.8035C29.7449 33.6003 33.5949 33.8302 34.3887 34.126C35.7422 34.6306 37.5155 35.8939 38.4218 36.9995L39.2551 38.0159L40.0699 37.0248C41.031 35.8559 42.5369 34.758 43.9251 34.2143C44.6823 33.9178 45.4015 33.8042 46.9214 33.7409C48.8005 33.663 49.0743 33.697 51.4545 34.3039C51.9653 34.4342 52.4702 34.5611 52.9711 34.6851C52.8571 34.0748 52.6716 33.4783 52.4173 32.9083C51.9606 31.8843 51.2924 30.9686 50.4565 30.2214C50.2961 29.0144 49.9393 27.8418 49.4004 26.75C50.9114 23.7589 52.0145 20.5788 52.6804 17.2945C53.1606 14.8026 53.4764 11.4062 52.2512 9.37852C51.9704 8.87914 51.5592 8.46536 51.0616 8.18131C50.5641 7.89726 49.9987 7.7536 49.4259 7.76565C45.4631 7.76565 43.0191 14.6128 41.62 20.7564C40.1465 20.4529 38.6266 20.4529 37.1531 20.7564C35.754 14.6128 33.31 7.76565 29.3472 7.76565C28.7748 7.75313 28.2098 7.89607 27.7123 8.17925C27.2148 8.46243 26.8034 8.87524 26.5219 9.37373C25.2951 11.4014 25.6141 14.7978 26.0927 17.2897C26.7581 20.5756 27.8613 23.7574 29.3727 26.75C28.8333 27.8433 28.4765 29.0176 28.3166 30.2262C27.5174 30.9416 26.8708 31.8109 26.4153 32.782C26.138 33.3732 25.935 33.9948 25.8098 34.6326ZM36.2461 33.2199C36.4214 32.9576 36.515 32.6491 36.515 32.3336C36.515 31.9105 36.3469 31.5047 36.0477 31.2055C35.7485 30.9064 35.3427 30.7383 34.9196 30.7383C34.6041 30.7383 34.2957 30.8319 34.0333 31.0071C33.771 31.1824 33.5665 31.4316 33.4458 31.7231C33.325 32.0146 33.2934 32.3354 33.355 32.6448C33.4165 32.9543 33.5685 33.2386 33.7916 33.4617C34.0147 33.6848 34.2989 33.8367 34.6084 33.8983C34.9179 33.9598 35.2386 33.9282 35.5301 33.8075C35.8217 33.6867 36.0708 33.4823 36.2461 33.2199ZM42.9671 31.0071C43.2295 30.8319 43.5379 30.7383 43.8534 30.7383C44.2766 30.7383 44.6823 30.9064 44.9815 31.2055C45.2807 31.5047 45.4488 31.9105 45.4488 32.3336C45.4488 32.6491 45.3552 32.9576 45.1799 33.2199C45.0046 33.4823 44.7555 33.6867 44.4639 33.8075C44.1724 33.9282 43.8517 33.9598 43.5422 33.8983C43.2327 33.8367 42.9485 33.6848 42.7254 33.4617C42.5023 33.2386 42.3503 32.9543 42.2888 32.6448C42.2272 32.3354 42.2588 32.0146 42.3796 31.7231C42.5003 31.4316 42.7048 31.1824 42.9671 31.0071Z" fill="#E2E7E9"/>
<path d="M6.16326 21.0797C6.0566 20.9286 5.99955 20.7482 6.00001 20.5633C6.00047 20.3784 6.05842 20.1982 6.16583 20.0477C6.27727 19.8952 6.43158 19.7795 6.60988 19.716L7.78686 19.3329C8.08187 19.2346 8.34997 19.069 8.57001 18.8493C8.79004 18.6296 8.95597 18.3618 9.0547 18.067L9.44046 16.8748C9.50428 16.6985 9.62182 16.5467 9.7765 16.4408C9.93118 16.3348 10.1152 16.2801 10.3027 16.2842C10.4901 16.2884 10.6715 16.3513 10.8213 16.464C10.9712 16.5767 11.0818 16.7335 11.1378 16.9125L11.5218 18.091C11.62 18.3861 11.7855 18.6543 12.0053 18.8745C12.225 19.0946 12.493 19.2607 12.7879 19.3595L13.9778 19.7469C14.1531 19.8093 14.3046 19.9247 14.4112 20.0772C14.5178 20.2297 14.5742 20.4116 14.5726 20.5976C14.571 20.7836 14.5114 20.9645 14.4022 21.1151C14.293 21.2657 14.1395 21.3786 13.9632 21.4379L12.7631 21.8296C12.476 21.928 12.215 22.0901 11.9997 22.3039C11.7844 22.5177 11.6204 22.7775 11.5201 23.0638L11.1369 24.2552C11.0744 24.4304 10.9589 24.5818 10.8064 24.6883C10.6539 24.7949 10.472 24.8513 10.286 24.8498C10.0999 24.8483 9.91896 24.7889 9.76822 24.6799C9.61748 24.5709 9.50442 24.4177 9.44474 24.2415L9.06327 23.0638C8.96483 22.7672 8.79813 22.4978 8.57658 22.2774C8.35504 22.0569 8.08484 21.8915 7.78771 21.7945L6.59531 21.4071C6.42043 21.3454 6.26956 21.2305 6.16326 21.0797Z" fill="#E2E7E9"/>
<path d="M70.0075 33.8833C70.023 33.9863 70.0623 34.0842 70.1222 34.1694C70.2021 34.282 70.315 34.3669 70.4454 34.4126L71.0902 34.6233C71.2227 34.6657 71.3426 34.739 71.4417 34.8381C71.54 34.9364 71.6142 35.0563 71.6592 35.1895L71.8649 35.8249C71.9085 35.9578 71.9927 36.0737 72.1058 36.1561C72.2188 36.2385 72.3549 36.2832 72.4948 36.2839C72.6348 36.2847 72.7713 36.2414 72.8853 36.1602C72.9992 36.079 73.0846 35.964 73.1295 35.8316L73.3395 35.1879C73.3847 35.0582 73.4593 34.9408 73.5574 34.8447C73.6556 34.7487 73.7746 34.6766 73.9051 34.6341L74.5399 34.4284C74.673 34.3851 74.789 34.301 74.8716 34.1881C74.9541 34.0752 74.9991 33.9392 75 33.7993C75.0009 33.6595 74.9578 33.5229 74.8767 33.4089C74.7956 33.2949 74.6807 33.2093 74.5483 33.1643L73.9043 32.9544C73.7729 32.91 73.6535 32.8357 73.5555 32.7375C73.4575 32.6393 73.3836 32.5197 73.3395 32.3882L73.1312 31.7519C73.0894 31.618 73.0064 31.5006 72.894 31.4165C72.7815 31.3325 72.6454 31.2861 72.505 31.284C72.3646 31.2819 72.2272 31.3241 72.1122 31.4047C71.9973 31.4853 71.9108 31.6001 71.8649 31.7328L71.655 32.3757C71.6117 32.5072 71.5384 32.6272 71.4384 32.7254C71.3397 32.8232 71.2201 32.8972 71.0885 32.9419L70.4537 33.1485C70.3552 33.1822 70.2658 33.2384 70.1928 33.3127C70.1197 33.3869 70.065 33.4771 70.0328 33.5761C70.0006 33.6752 69.992 33.7803 70.0075 33.8833Z" fill="#E2E7E9"/>
</svg>
