<svg width="230" height="59" viewBox="0 0 230 59" fill="none" xmlns="http://www.w3.org/2000/svg">
<path d="M79.3677 21.2089C79.4572 21.191 79.5735 21.1821 79.7167 21.1821C80.2535 21.1821 80.6741 21.3431 80.9783 21.6653C81.2825 21.9695 81.4346 22.39 81.4346 22.9269C81.4346 23.8575 80.9515 24.4212 79.9851 24.618C79.1798 24.7791 77.6766 24.8596 75.4754 24.8596H74.6164C73.6321 24.8596 72.6926 24.8328 71.7978 24.7791C70.9209 24.7254 69.8383 24.618 68.5498 24.457C67.7624 24.3496 67.3687 23.8127 67.3687 22.8464C67.3687 22.3811 67.4581 21.9963 67.6371 21.6921C67.816 21.37 68.0934 21.191 68.4692 21.1552H68.7377C68.9524 19.7057 69.0419 18.3098 69.0061 16.9676H68.8182C68.3887 16.9676 68.0666 16.8245 67.8518 16.5382C67.655 16.2339 67.5566 15.7865 67.5566 15.196C67.5566 14.6949 67.655 14.2833 67.8518 13.9612C68.0666 13.6391 68.3798 13.478 68.7914 13.478H69.0061C69.024 12.8159 69.0329 11.5542 69.0329 9.69306C68.4245 9.44252 68.1203 8.93249 68.1203 8.16298C68.1203 7.59032 68.2724 7.17872 68.5766 6.92818C68.8808 6.65974 69.3551 6.48974 69.9993 6.41815C70.8762 6.32867 72.4689 6.28394 74.7775 6.28394C77.0144 6.28394 78.7235 6.35552 79.9046 6.49868C80.4414 6.55237 80.853 6.71343 81.1394 6.98187C81.4436 7.23241 81.5957 7.62611 81.5957 8.16298C81.5957 8.69985 81.4615 9.13829 81.1931 9.47831C80.9246 9.80043 80.5578 9.9436 80.0925 9.90781C78.4461 9.76464 76.9965 9.69306 75.7438 9.69306C75.1712 9.69306 74.4374 9.71096 73.5427 9.74675L72.8447 9.77359L72.9253 13.5317H73.5427C74.4374 13.5317 75.5291 13.5496 76.8176 13.5854L78.5355 13.6391C79.2335 13.6391 79.5824 14.2028 79.5824 15.3302C79.5824 15.8671 79.4751 16.2876 79.2603 16.5918C79.0635 16.8961 78.7771 17.0482 78.4013 17.0482C77.8645 17.0482 77.4081 17.0392 77.0323 17.0213L73.5427 16.9945H72.9521C72.9163 18.6051 72.8089 20.0546 72.63 21.3431C73.31 21.4147 74.1601 21.4505 75.1801 21.4505C76.6655 21.4505 78.0613 21.37 79.3677 21.2089Z" fill="#E2E7E9"/>
<path d="M106.02 25.1281C104.695 25.1281 103.505 24.8507 102.45 24.2959C101.412 23.7412 100.597 22.9627 100.007 21.9605C99.4341 20.9584 99.1478 19.8041 99.1478 18.4977C99.1478 17.1556 99.452 15.9386 100.06 14.847C100.669 13.7375 101.51 12.8695 102.584 12.2432C103.675 11.5989 104.901 11.2768 106.261 11.2768C107.711 11.2768 108.999 11.6258 110.127 12.3237C111.272 13.0217 112.06 13.9254 112.489 15.0349C112.632 15.3749 112.704 15.6702 112.704 15.9208C112.704 16.5113 112.292 16.905 111.469 17.1019C111.236 17.1556 111.022 17.1824 110.825 17.1824C110.467 17.1824 110.172 17.0929 109.939 16.914C109.724 16.7171 109.483 16.4039 109.214 15.9744C108.874 15.4555 108.489 15.0439 108.06 14.7396C107.63 14.4175 107.102 14.2565 106.476 14.2565C105.474 14.2565 104.651 14.6681 104.006 15.4913C103.362 16.2966 103.04 17.3166 103.04 18.5514C103.04 19.6788 103.326 20.5647 103.899 21.2089C104.49 21.8353 105.34 22.1484 106.449 22.1484C107.505 22.1484 108.284 21.88 108.785 21.3431C109.304 20.7884 109.563 20.1441 109.563 19.4104C109.563 19.1241 109.706 18.8646 109.993 18.6319C110.297 18.3814 110.699 18.2561 111.201 18.2561C111.809 18.2561 112.265 18.3725 112.57 18.6051C112.892 18.8377 113.053 19.2493 113.053 19.8399C113.053 20.7347 112.82 21.5847 112.355 22.39C111.89 23.1953 111.129 23.8575 110.073 24.3765C109.035 24.8775 107.684 25.1281 106.02 25.1281Z" fill="#E2E7E9"/>
<path d="M128.452 22.1216C128.792 22.1753 129.051 22.3006 129.23 22.4974C129.427 22.6943 129.525 23.0432 129.525 23.5443C129.525 23.9738 129.409 24.3407 129.176 24.6449C128.962 24.9491 128.666 25.1012 128.291 25.1012C127.521 25.1012 126.931 25.0117 126.519 24.8328C126.107 24.6359 125.732 24.287 125.392 23.7859C124.998 24.3765 124.461 24.797 123.781 25.0475C123.101 25.2802 122.305 25.3965 121.392 25.3965C119.37 25.3965 117.831 24.8149 116.775 23.6517C115.719 22.4885 115.191 20.8689 115.191 18.793C115.191 17.4329 115.468 16.225 116.023 15.1691C116.578 14.1133 117.347 13.2901 118.332 12.6995C119.334 12.109 120.479 11.8137 121.768 11.8137C122.412 11.8137 123.011 11.939 123.566 12.1895C124.121 12.44 124.541 12.7711 124.828 13.1827L124.881 12.8337C124.917 12.5832 125.06 12.3774 125.311 12.2163C125.562 12.0374 125.955 11.9479 126.492 11.9479C127.065 11.9479 127.485 12.0642 127.754 12.2969C128.022 12.5295 128.156 12.8248 128.156 13.1827C128.156 13.308 128.147 13.4064 128.13 13.478C128.022 14.0864 127.915 15.1065 127.807 16.5382C127.754 17.2003 127.727 18.0503 127.727 19.0883V20.4305C127.727 20.9494 127.772 21.3521 127.861 21.6384C127.951 21.9069 128.147 22.0679 128.452 22.1216ZM123.969 20.2694C123.987 19.5357 123.996 18.3993 123.996 16.8603C123.996 16.2518 123.79 15.7597 123.378 15.3839C122.985 14.9902 122.475 14.7933 121.848 14.7933C121.043 14.7933 120.381 15.1691 119.862 15.9208C119.343 16.6545 119.083 17.6029 119.083 18.7662C119.083 19.8757 119.316 20.7615 119.781 21.4237C120.246 22.0858 120.873 22.4169 121.66 22.4169C122.394 22.4169 122.958 22.2379 123.351 21.88C123.745 21.5042 123.951 20.9673 123.969 20.2694Z" fill="#E2E7E9"/>
<path d="M139.706 11.3842C141.281 11.3842 142.498 11.939 143.357 13.0485C144.234 14.1401 144.672 15.7597 144.672 17.9072L144.645 23.9738C144.645 24.3496 144.457 24.6359 144.082 24.8328C143.724 25.0296 143.276 25.1281 142.739 25.1281C142.22 25.1281 141.755 25.0386 141.343 24.8596C140.95 24.6807 140.753 24.4301 140.753 24.108L140.78 17.8803C140.78 16.5739 140.637 15.6613 140.35 15.1423C140.064 14.6233 139.617 14.3638 139.008 14.3638C138.489 14.3638 138.078 14.5965 137.773 15.0618C137.469 15.527 137.21 16.4308 136.995 17.773C136.87 18.5246 136.807 19.3567 136.807 20.2694L136.834 23.7322C136.834 24.1975 136.655 24.5554 136.297 24.806C135.957 25.0386 135.492 25.1549 134.901 25.1549C134.293 25.1549 133.809 25.0296 133.451 24.7791C133.111 24.5286 132.941 24.1796 132.941 23.7322C132.941 20.0099 132.888 17.1108 132.78 15.0349C132.762 14.8202 132.709 14.6233 132.619 14.4444C132.548 14.2475 132.458 14.0685 132.351 13.9075C132.244 13.7464 132.163 13.6212 132.109 13.5317C132.002 13.3348 131.948 13.138 131.948 12.9411C131.948 12.5653 132.163 12.2163 132.592 11.8942C133.04 11.5542 133.469 11.3842 133.881 11.3842C134.078 11.3842 134.266 11.4468 134.445 11.5721C134.642 11.6974 134.856 11.9032 135.089 12.1895C135.286 12.44 135.429 12.6637 135.518 12.8606C135.608 13.0574 135.653 13.2811 135.653 13.5317V13.7733C135.975 13.0932 136.458 12.5295 137.102 12.0821C137.764 11.6168 138.632 11.3842 139.706 11.3842Z" fill="#E2E7E9"/>
<path d="M155.442 19.7594C156.033 19.7594 156.462 19.8757 156.731 20.1083C156.999 20.341 157.133 20.7168 157.133 21.2358C157.133 22.4169 156.758 23.3653 156.006 24.0812C155.254 24.797 154.306 25.1549 153.16 25.1549C151.604 25.1549 150.467 24.5286 149.751 23.2759C149.036 22.0053 148.678 20.001 148.678 17.2629C148.678 16.4397 148.687 15.8402 148.704 15.4644C148.579 15.4465 148.373 15.4376 148.087 15.4376C147.067 15.4197 146.557 14.9275 146.557 13.9612C146.557 13.4601 146.682 13.0843 146.933 12.8337C147.201 12.5832 147.667 12.4669 148.329 12.4848L148.919 12.5116C149.044 11.4021 149.25 10.042 149.537 8.43141C149.608 8.00192 149.805 7.6798 150.127 7.46505C150.467 7.23241 150.897 7.11608 151.416 7.11608C152.024 7.11608 152.498 7.25925 152.838 7.54558C153.178 7.83191 153.348 8.18088 153.348 8.59248L153.322 8.80722L153.187 9.66622C152.973 11.1337 152.829 12.1358 152.758 12.6727C153.366 12.7085 153.832 12.7264 154.154 12.7264C155.066 12.7443 155.523 13.2185 155.523 14.1491C155.523 14.6144 155.397 14.9633 155.147 15.196C154.896 15.4286 154.476 15.5449 153.885 15.5449H152.543C152.525 15.9029 152.516 16.4755 152.516 17.2629C152.516 18.5872 152.543 19.6073 152.597 20.3231C152.668 21.021 152.767 21.4953 152.892 21.7458C153.017 21.9963 153.178 22.1216 153.375 22.1216C153.626 22.1216 153.787 22.0411 153.858 21.88C153.93 21.7189 153.966 21.4326 153.966 21.021C153.966 20.1799 154.458 19.7594 155.442 19.7594Z" fill="#E2E7E9"/>
<path d="M166.162 25.1818C163.889 25.1818 162.082 24.5912 160.739 23.4101C159.415 22.2111 158.753 20.5378 158.753 18.3904C158.753 16.9945 159.048 15.7507 159.639 14.6591C160.229 13.5675 161.061 12.7174 162.135 12.109C163.227 11.5005 164.506 11.1963 165.974 11.1963C167.459 11.1963 168.766 11.5095 169.893 12.1358C171.02 12.7622 171.888 13.6391 172.497 14.7665C173.123 15.876 173.436 17.1466 173.436 18.5783C173.436 20.6721 172.783 22.3006 171.477 23.4638C170.17 24.6091 168.399 25.1818 166.162 25.1818ZM166.108 22.2021C167.2 22.2021 168.041 21.8979 168.631 21.2895C169.24 20.6631 169.544 19.7415 169.544 18.5246C169.544 17.3256 169.249 16.3055 168.658 15.4644C168.086 14.6054 167.235 14.1759 166.108 14.1759C165.052 14.1759 164.211 14.5607 163.585 15.3302C162.958 16.0997 162.645 17.1287 162.645 18.4172C162.645 19.6699 162.949 20.6184 163.558 21.2626C164.166 21.889 165.016 22.2021 166.108 22.2021Z" fill="#E2E7E9"/>
<path d="M180.991 25.3428C179.756 25.3428 178.655 25.0565 177.689 24.4838C176.723 23.8933 176.034 23.1148 175.622 22.1484C175.515 21.88 175.461 21.6563 175.461 21.4774C175.461 21.1015 175.658 20.7436 176.051 20.4036C176.445 20.0636 176.875 19.8936 177.34 19.8936C177.608 19.8936 177.823 19.9562 177.984 20.0815C178.145 20.1889 178.271 20.2962 178.36 20.4036C178.449 20.4931 178.503 20.5557 178.521 20.5915C179.04 21.2 179.47 21.6295 179.81 21.88C180.15 22.1305 180.561 22.2558 181.044 22.2558C181.492 22.2558 181.877 22.1663 182.199 21.9874C182.521 21.7905 182.682 21.5221 182.682 21.1821C182.682 20.8063 182.494 20.511 182.118 20.2962C181.742 20.0815 181.134 19.8399 180.293 19.5715C179.362 19.2493 178.602 18.9451 178.011 18.6588C177.438 18.3725 176.928 17.9519 176.481 17.3971C176.051 16.8245 175.837 16.0997 175.837 15.2228C175.837 14.3459 176.087 13.5943 176.588 12.968C177.089 12.3237 177.752 11.8316 178.575 11.4916C179.416 11.1516 180.32 10.9815 181.286 10.9815C182.324 10.9815 183.219 11.1784 183.97 11.5721C184.74 11.9479 185.321 12.4579 185.715 13.1022C186.109 13.7285 186.306 14.3996 186.306 15.1154C186.306 15.5986 186.171 15.9655 185.903 16.216C185.635 16.4666 185.187 16.5918 184.561 16.5918C184.006 16.5918 183.621 16.5024 183.407 16.3234C183.21 16.1444 183.084 15.8939 183.031 15.5718C182.977 15.1244 182.834 14.7665 182.601 14.498C182.387 14.2296 181.948 14.0954 181.286 14.0954C180.785 14.0954 180.391 14.1849 180.105 14.3638C179.836 14.5428 179.702 14.7933 179.702 15.1154C179.702 15.5092 179.89 15.8134 180.266 16.0281C180.66 16.2429 181.286 16.4755 182.145 16.7261C183.058 17.0124 183.809 17.2987 184.4 17.585C184.99 17.8535 185.5 18.2651 185.93 18.8198C186.359 19.3567 186.574 20.0725 186.574 20.9673C186.574 21.9874 186.288 22.8285 185.715 23.4906C185.142 24.1528 184.427 24.627 183.568 24.9133C182.709 25.1997 181.85 25.3428 180.991 25.3428Z" fill="#E2E7E9"/>
<path d="M109.99 47.3097C109.417 47.3097 108.943 47.1666 108.567 46.8803C108.191 46.5939 108.012 46.2092 108.03 45.726L108.245 35.8207C108.263 35.3375 108.451 34.9617 108.809 34.6933C109.167 34.407 109.632 34.2638 110.205 34.2638C110.795 34.2638 111.278 34.407 111.654 34.6933C112.03 34.9796 112.209 35.3733 112.191 35.8744L111.976 45.7528C111.958 46.236 111.762 46.6208 111.386 46.9071C111.028 47.1755 110.563 47.3097 109.99 47.3097Z" fill="#E2E7E9"/>
<path d="M124.321 42.129C124.912 42.129 125.341 42.2453 125.61 42.4779C125.878 42.7106 126.013 43.0864 126.013 43.6053C126.013 44.7865 125.637 45.7349 124.885 46.4508C124.133 47.1666 123.185 47.5245 122.04 47.5245C120.483 47.5245 119.346 46.8981 118.631 45.6455C117.915 44.3749 117.557 42.3705 117.557 39.6325C117.557 38.8093 117.566 38.2098 117.584 37.834C117.458 37.8161 117.253 37.8071 116.966 37.8071C115.946 37.7893 115.436 37.2971 115.436 36.3308C115.436 35.8297 115.561 35.4539 115.812 35.2033C116.08 34.9528 116.546 34.8365 117.208 34.8544L117.798 34.8812C117.924 33.7717 118.129 32.4116 118.416 30.801C118.487 30.3715 118.684 30.0494 119.006 29.8346C119.346 29.602 119.776 29.4857 120.295 29.4857C120.903 29.4857 121.378 29.6288 121.718 29.9152C122.058 30.2015 122.228 30.5505 122.228 30.9621L122.201 31.1768L122.067 32.0358C121.852 33.5032 121.709 34.5054 121.637 35.0423C122.245 35.0781 122.711 35.096 123.033 35.096C123.946 35.1139 124.402 35.5881 124.402 36.5187C124.402 36.9839 124.277 37.3329 124.026 37.5656C123.776 37.7982 123.355 37.9145 122.764 37.9145H121.422C121.404 38.2724 121.395 38.8451 121.395 39.6325C121.395 40.9568 121.422 41.9768 121.476 42.6927C121.548 43.3906 121.646 43.8648 121.771 44.1154C121.897 44.3659 122.058 44.4912 122.254 44.4912C122.505 44.4912 122.666 44.4106 122.738 44.2496C122.809 44.0885 122.845 43.8022 122.845 43.3906C122.845 42.5495 123.337 42.129 124.321 42.129Z" fill="#E2E7E9"/>
<path d="M135.363 47.7392C133.735 47.7392 132.357 47.435 131.229 46.8266C130.12 46.2181 129.287 45.377 128.733 44.3033C128.178 43.2295 127.901 42.0126 127.901 40.6526C127.901 39.2925 128.214 38.0845 128.84 37.0287C129.484 35.9549 130.352 35.1228 131.444 34.5322C132.553 33.9417 133.788 33.6464 135.148 33.6464C136.365 33.6464 137.475 33.888 138.477 34.3712C139.497 34.8544 140.293 35.5523 140.866 36.465C141.457 37.3598 141.752 38.4156 141.752 39.6325C141.752 40.402 141.609 40.9568 141.322 41.2968C141.054 41.6189 140.589 41.78 139.926 41.78H131.256C131.256 42.2095 131.408 42.6479 131.712 43.0953C132.017 43.5248 132.473 43.8917 133.081 44.1959C133.69 44.5001 134.415 44.6522 135.256 44.6522C136.007 44.6522 136.598 44.5449 137.027 44.3301C137.457 44.0975 137.904 43.7575 138.37 43.3101C138.71 43.0058 139.059 42.8537 139.416 42.8537C139.828 42.8537 140.213 43.0148 140.571 43.3369C140.929 43.6411 141.108 43.9901 141.108 44.3838C141.108 44.7059 141 45.0191 140.785 45.3233C140.41 45.9139 139.774 46.4687 138.88 46.9876C137.985 47.4887 136.813 47.7392 135.363 47.7392ZM138.208 39.3641C138.37 39.3641 138.468 39.3372 138.504 39.2835C138.557 39.2299 138.584 39.1314 138.584 38.9883C138.584 38.2903 138.244 37.7087 137.564 37.2434C136.902 36.7781 136.079 36.5455 135.095 36.5455C134.307 36.5455 133.618 36.6976 133.028 37.0018C132.455 37.3061 132.017 37.6819 131.712 38.1293C131.408 38.5588 131.256 38.9704 131.256 39.3641H138.208Z" fill="#E2E7E9"/>
<path d="M151.864 33.539C152.58 33.539 153.242 33.709 153.85 34.0491C154.459 34.3712 154.942 34.8365 155.3 35.4449C155.658 36.0534 155.837 36.7603 155.837 37.5656C155.837 38.7288 155.452 39.6325 154.682 40.2767C153.931 40.9031 152.955 41.2163 151.756 41.2163C151.13 41.2163 150.692 41.1268 150.441 40.9478C150.191 40.751 150.065 40.4289 150.065 39.9815C150.065 39.552 150.155 39.2567 150.334 39.0956C150.513 38.9167 150.763 38.8093 151.085 38.7735C152.141 38.6661 152.669 38.2277 152.669 37.4582C152.669 37.1361 152.589 36.8945 152.428 36.7334C152.284 36.5545 152.079 36.465 151.81 36.465C151.327 36.465 150.88 36.7424 150.468 37.2971C150.056 37.834 149.716 38.4693 149.448 39.203C149.179 39.9188 149.009 40.5273 148.938 41.0284C148.813 41.8158 148.75 43.2116 148.75 45.216C148.75 46.1823 148.607 46.8445 148.321 47.2024C148.052 47.5424 147.569 47.7124 146.871 47.7124C146.227 47.7124 145.735 47.5871 145.395 47.3366C145.072 47.0861 144.902 46.7013 144.885 46.1823V41.8337C144.885 40.6884 144.858 39.722 144.804 38.9346C144.75 38.1293 144.661 37.1003 144.536 35.8476L144.428 34.747C144.392 34.2996 144.536 33.9327 144.858 33.6464C145.198 33.3601 145.663 33.2169 146.254 33.2169C147.256 33.2169 147.793 33.6643 147.864 34.5591C147.9 34.9886 147.936 35.597 147.972 36.3844C148.329 35.5433 148.831 34.8633 149.475 34.3443C150.137 33.8075 150.933 33.539 151.864 33.539Z" fill="#E2E7E9"/>
<path d="M171.15 44.4912C171.491 44.5449 171.75 44.6701 171.929 44.867C172.126 45.0638 172.224 45.4128 172.224 45.9139C172.224 46.3434 172.108 46.7102 171.875 47.0145C171.661 47.3187 171.365 47.4708 170.989 47.4708C170.22 47.4708 169.629 47.3813 169.218 47.2024C168.806 47.0055 168.43 46.6566 168.09 46.1555C167.697 46.746 167.16 47.1666 166.48 47.4171C165.8 47.6498 165.003 47.7661 164.091 47.7661C162.068 47.7661 160.529 47.1845 159.474 46.0213C158.418 44.858 157.89 43.2385 157.89 41.1626C157.89 39.8025 158.167 38.5946 158.722 37.5387C159.277 36.4829 160.046 35.6597 161.03 35.0691C162.033 34.4786 163.178 34.1833 164.466 34.1833C165.111 34.1833 165.71 34.3085 166.265 34.5591C166.82 34.8096 167.24 35.1407 167.527 35.5523L167.58 35.2033C167.616 34.9528 167.759 34.747 168.01 34.5859C168.26 34.407 168.654 34.3175 169.191 34.3175C169.764 34.3175 170.184 34.4338 170.453 34.6665C170.721 34.8991 170.855 35.1944 170.855 35.5523C170.855 35.6776 170.846 35.776 170.828 35.8476C170.721 36.456 170.614 37.4761 170.506 38.9077C170.453 39.5699 170.426 40.4199 170.426 41.4579V42.8C170.426 43.319 170.47 43.7217 170.56 44.008C170.649 44.2764 170.846 44.4375 171.15 44.4912ZM166.668 42.639C166.686 41.9053 166.694 40.7689 166.694 39.2299C166.694 38.6214 166.489 38.1293 166.077 37.7535C165.683 37.3598 165.173 37.1629 164.547 37.1629C163.742 37.1629 163.08 37.5387 162.561 38.2903C162.042 39.0241 161.782 39.9725 161.782 41.1357C161.782 42.2453 162.015 43.1311 162.48 43.7932C162.945 44.4554 163.572 44.7865 164.359 44.7865C165.093 44.7865 165.657 44.6075 166.05 44.2496C166.444 43.8738 166.65 43.3369 166.668 42.639ZM163.366 32.7069C162.99 32.7069 162.677 32.5816 162.426 32.3311C162.176 32.0626 162.051 31.7405 162.051 31.3647C162.051 31.15 162.095 30.9263 162.185 30.6936C162.274 30.461 162.399 30.2731 162.561 30.1299L165.057 27.8482C165.397 27.5261 165.665 27.3024 165.862 27.1771C166.077 27.0519 166.31 26.9892 166.56 26.9892C166.954 26.9892 167.285 27.1234 167.553 27.3919C167.822 27.6603 167.956 28.0003 167.956 28.4119C167.956 28.6804 167.893 28.9309 167.768 29.1635C167.661 29.3962 167.518 29.593 167.339 29.7541L164.654 32.0626C164.404 32.2953 164.18 32.4653 163.983 32.5727C163.786 32.6621 163.581 32.7069 163.366 32.7069Z" fill="#E2E7E9"/>
<path d="M182.351 33.539C183.067 33.539 183.729 33.709 184.338 34.0491C184.946 34.3712 185.429 34.8365 185.787 35.4449C186.145 36.0534 186.324 36.7603 186.324 37.5656C186.324 38.7288 185.939 39.6325 185.17 40.2767C184.418 40.9031 183.443 41.2163 182.244 41.2163C181.617 41.2163 181.179 41.1268 180.928 40.9478C180.678 40.751 180.553 40.4289 180.553 39.9815C180.553 39.552 180.642 39.2567 180.821 39.0956C181 38.9167 181.251 38.8093 181.573 38.7735C182.629 38.6661 183.156 38.2277 183.156 37.4582C183.156 37.1361 183.076 36.8945 182.915 36.7334C182.772 36.5545 182.566 36.465 182.297 36.465C181.814 36.465 181.367 36.7424 180.955 37.2971C180.544 37.834 180.204 38.4693 179.935 39.203C179.667 39.9188 179.497 40.5273 179.425 41.0284C179.3 41.8158 179.237 43.2116 179.237 45.216C179.237 46.1823 179.094 46.8445 178.808 47.2024C178.539 47.5424 178.056 47.7124 177.358 47.7124C176.714 47.7124 176.222 47.5871 175.882 47.3366C175.56 47.0861 175.39 46.7013 175.372 46.1823V41.8337C175.372 40.6884 175.345 39.722 175.291 38.9346C175.238 38.1293 175.148 37.1003 175.023 35.8476L174.915 34.747C174.88 34.2996 175.023 33.9327 175.345 33.6464C175.685 33.3601 176.15 33.2169 176.741 33.2169C177.743 33.2169 178.28 33.6643 178.351 34.5591C178.387 34.9886 178.423 35.597 178.459 36.3844C178.817 35.5433 179.318 34.8633 179.962 34.3443C180.624 33.8075 181.421 33.539 182.351 33.539Z" fill="#E2E7E9"/>
<path d="M191.464 47.3097C190.891 47.3097 190.417 47.1666 190.041 46.8803C189.666 46.5939 189.487 46.2092 189.505 45.726L189.719 35.8207C189.737 35.3375 189.925 34.9617 190.283 34.6933C190.641 34.407 191.106 34.2638 191.679 34.2638C192.269 34.2638 192.753 34.407 193.128 34.6933C193.504 34.9796 193.683 35.3733 193.665 35.8744L193.451 45.7528C193.433 46.236 193.236 46.6208 192.86 46.9071C192.502 47.1755 192.037 47.3097 191.464 47.3097Z" fill="#E2E7E9"/>
<path d="M204.588 47.5513C202.315 47.5513 200.507 46.9608 199.165 45.7797C197.841 44.5807 197.179 42.9074 197.179 40.7599C197.179 39.3641 197.474 38.1203 198.065 37.0287C198.655 35.9371 199.487 35.087 200.561 34.4786C201.653 33.8701 202.932 33.5659 204.4 33.5659C205.885 33.5659 207.191 33.879 208.319 34.5054C209.446 35.1317 210.314 36.0086 210.923 37.1361C211.549 38.2456 211.862 39.5162 211.862 40.9478C211.862 43.0416 211.209 44.6701 209.903 45.8334C208.596 46.9787 206.825 47.5513 204.588 47.5513ZM204.534 44.5717C205.626 44.5717 206.467 44.2675 207.057 43.659C207.666 43.0327 207.97 42.1111 207.97 40.8941C207.97 39.6951 207.675 38.6751 207.084 37.834C206.511 36.975 205.661 36.5455 204.534 36.5455C203.478 36.5455 202.637 36.9303 202.011 37.6998C201.384 38.4693 201.071 39.4983 201.071 40.7868C201.071 42.0395 201.375 42.9879 201.984 43.6322C202.592 44.2585 203.442 44.5717 204.534 44.5717Z" fill="#E2E7E9"/>
<path d="M219.417 47.7124C218.182 47.7124 217.081 47.4261 216.115 46.8534C215.148 46.2628 214.459 45.4844 214.048 44.518C213.94 44.2496 213.887 44.0259 213.887 43.8469C213.887 43.4711 214.084 43.1132 214.477 42.7732C214.871 42.4332 215.301 42.2632 215.766 42.2632C216.034 42.2632 216.249 42.3258 216.41 42.4511C216.571 42.5584 216.696 42.6658 216.786 42.7732C216.875 42.8627 216.929 42.9253 216.947 42.9611C217.466 43.5695 217.895 43.9991 218.235 44.2496C218.575 44.5001 218.987 44.6254 219.47 44.6254C219.918 44.6254 220.302 44.5359 220.625 44.357C220.947 44.1601 221.108 43.8917 221.108 43.5517C221.108 43.1758 220.92 42.8806 220.544 42.6658C220.168 42.4511 219.56 42.2095 218.719 41.941C217.788 41.6189 217.027 41.3147 216.437 41.0284C215.864 40.742 215.354 40.3215 214.907 39.7667C214.477 39.1941 214.263 38.4693 214.263 37.5924C214.263 36.7155 214.513 35.9639 215.014 35.3375C215.515 34.6933 216.177 34.2012 217.001 33.8612C217.842 33.5211 218.745 33.3511 219.712 33.3511C220.75 33.3511 221.645 33.548 222.396 33.9417C223.166 34.3175 223.747 34.8275 224.141 35.4718C224.535 36.0981 224.732 36.7692 224.732 37.485C224.732 37.9682 224.597 38.3351 224.329 38.5856C224.061 38.8362 223.613 38.9614 222.987 38.9614C222.432 38.9614 222.047 38.8719 221.832 38.693C221.636 38.514 221.51 38.2635 221.457 37.9414C221.403 37.494 221.26 37.1361 221.027 36.8676C220.812 36.5992 220.374 36.465 219.712 36.465C219.211 36.465 218.817 36.5545 218.531 36.7334C218.262 36.9124 218.128 37.1629 218.128 37.485C218.128 37.8787 218.316 38.183 218.692 38.3977C219.085 38.6125 219.712 38.8451 220.571 39.0956C221.484 39.382 222.235 39.6683 222.826 39.9546C223.416 40.2231 223.926 40.6347 224.356 41.1894C224.785 41.7263 225 42.4421 225 43.3369C225 44.357 224.714 45.1981 224.141 45.8602C223.568 46.5223 222.853 46.9966 221.994 47.2829C221.135 47.5692 220.276 47.7124 219.417 47.7124Z" fill="#E2E7E9"/>
<path d="M91.76 11.3842C93.3348 11.3842 94.5517 11.939 95.4107 13.0485C96.2876 14.1401 96.726 15.7597 96.726 17.9072C96.726 17.9072 96.497 23.9963 96.4357 25.1012C96.3743 26.206 95.7339 36.286 95.7339 36.286C95.6265 38.2433 95.6265 39.4625 95.6265 41.1626C95.6265 42.0395 95.6623 42.6837 95.7339 43.0953C95.8234 43.5069 95.9844 43.7932 96.2171 43.9543C96.4676 44.1154 96.8524 44.1959 97.3713 44.1959C98.4809 44.1959 100.396 43.9454 103.116 43.4443C103.205 43.4264 103.331 43.4174 103.492 43.4174C103.957 43.4174 104.324 43.5964 104.592 43.9543C104.879 44.2943 105.022 44.697 105.022 45.1623C105.022 46.1107 104.333 46.7102 102.955 46.9608C101.72 47.1934 100.78 47.3545 100.136 47.444C99.5099 47.5155 98.7135 47.5513 97.7471 47.5513C95.9934 47.5513 94.7049 47.3634 93.8817 46.9876C93.0764 46.6118 92.5395 45.9855 92.2711 45.1086C92.0026 44.2317 91.8684 42.8806 91.8684 41.0552C91.8684 38.9972 91.9579 37.1092 92.1368 35.3912C92.3337 33.6733 92.5694 28.1234 92.8248 24.5151C93.0802 20.9069 92.8337 17.8803 92.8337 17.8803C92.8337 16.5739 92.6905 15.6613 92.4042 15.1423C92.1179 14.6233 91.6705 14.3638 91.062 14.3638C90.5431 14.3638 90.1315 14.5965 89.8272 15.0618C89.523 15.527 89.2635 16.4308 89.0488 17.773C88.9235 18.5246 88.8609 19.3567 88.8609 20.2694L88.8877 23.7322C88.8877 24.1975 88.7087 24.5554 88.3508 24.806C88.0108 25.0386 87.5455 25.1549 86.955 25.1549C86.3465 25.1549 85.8633 25.0296 85.5054 24.7791C85.1654 24.5286 84.9954 24.1796 84.9954 23.7322C84.9954 20.0099 84.9417 17.1108 84.8343 15.0349C84.8164 14.8202 84.7627 14.6233 84.6733 14.4444C84.6017 14.2475 84.5122 14.0685 84.4048 13.9075C84.2975 13.7464 84.2169 13.6212 84.1632 13.5317C84.0559 13.3348 84.0022 13.138 84.0022 12.9411C84.0022 12.5653 84.2169 12.2163 84.6464 11.8942C85.0938 11.5542 85.5233 11.3842 85.9349 11.3842C86.1318 11.3842 86.3197 11.4468 86.4986 11.5721C86.6955 11.6974 86.9102 11.9032 87.1429 12.1895C87.3397 12.44 87.4829 12.6637 87.5724 12.8606C87.6618 13.0574 87.7066 13.2811 87.7066 13.5317V13.7733C88.0287 13.0932 88.5119 12.5295 89.1561 12.0821C89.8183 11.6168 90.6862 11.3842 91.76 11.3842Z" fill="#E2E7E9"/>
<path d="M107.5 30.4032C107.519 30.5268 107.566 30.6443 107.638 30.7465C107.734 30.8816 107.869 30.9836 108.025 31.0383L108.799 31.2911C108.958 31.3421 109.102 31.43 109.221 31.549C109.339 31.6669 109.428 31.8108 109.482 31.9707L109.729 32.7331C109.781 32.8926 109.882 33.0317 110.018 33.1305C110.154 33.2294 110.317 33.2831 110.485 33.2839C110.653 33.2848 110.817 33.2329 110.953 33.1354C111.09 33.038 111.193 32.9001 111.246 32.7411L111.498 31.9687C111.553 31.8131 111.642 31.6722 111.76 31.5569C111.878 31.4416 112.02 31.3551 112.177 31.3041L112.939 31.0573C113.099 31.0053 113.238 30.9044 113.337 30.769C113.436 30.6335 113.49 30.4703 113.491 30.3024C113.492 30.1346 113.44 29.9707 113.343 29.8339C113.246 29.6971 113.108 29.5944 112.949 29.5404L112.176 29.2885C112.018 29.2352 111.875 29.1461 111.758 29.0282C111.64 28.9103 111.551 28.7669 111.498 28.609L111.248 27.8455C111.198 27.6848 111.099 27.5439 110.964 27.4431C110.829 27.3422 110.666 27.2866 110.497 27.284C110.329 27.2815 110.164 27.3322 110.026 27.4289C109.888 27.5256 109.784 27.6634 109.729 27.8226L109.477 28.594C109.425 28.7519 109.337 28.8958 109.217 29.0137C109.099 29.131 108.955 29.2199 108.797 29.2735L108.035 29.5214C107.917 29.5619 107.81 29.6294 107.722 29.7184C107.635 29.8075 107.569 29.9157 107.53 30.0346C107.492 30.1534 107.481 30.2796 107.5 30.4032Z" fill="#E2E7E9"/>
<path d="M189.009 30.4032C189.028 30.5267 189.075 30.6443 189.147 30.7465C189.243 30.8816 189.378 30.9836 189.534 31.0383L190.308 31.2911C190.467 31.3421 190.611 31.43 190.73 31.5489C190.848 31.6669 190.937 31.8108 190.991 31.9706L191.238 32.7331C191.29 32.8926 191.391 33.0316 191.527 33.1305C191.663 33.2294 191.826 33.283 191.994 33.2839C192.162 33.2848 192.326 33.2329 192.462 33.1354C192.599 33.038 192.702 32.9 192.755 32.7411L193.007 31.9686C193.062 31.8131 193.151 31.6722 193.269 31.5569C193.387 31.4416 193.529 31.3551 193.686 31.3041L194.448 31.0573C194.608 31.0053 194.747 30.9044 194.846 30.7689C194.945 30.6335 194.999 30.4702 195 30.3024C195.001 30.1346 194.949 29.9707 194.852 29.8339C194.755 29.6971 194.617 29.5944 194.458 29.5403L193.685 29.2885C193.527 29.2352 193.384 29.1461 193.267 29.0282C193.149 28.9103 193.06 28.7668 193.007 28.609L192.757 27.8455C192.707 27.6848 192.608 27.5439 192.473 27.4431C192.338 27.3422 192.174 27.2866 192.006 27.284C191.838 27.2815 191.673 27.3322 191.535 27.4289C191.397 27.5256 191.293 27.6634 191.238 27.8226L190.986 28.594C190.934 28.7519 190.846 28.8958 190.726 29.0137C190.608 29.131 190.464 29.2199 190.306 29.2735L189.544 29.5214C189.426 29.5619 189.319 29.6293 189.231 29.7184C189.144 29.8075 189.078 29.9157 189.039 30.0346C189.001 30.1534 188.99 30.2796 189.009 30.4032Z" fill="#E2E7E9"/>
<path fill-rule="evenodd" clip-rule="evenodd" d="M28.989 33.8035C24.0968 35.1194 20.1694 36.0114 14.8688 37.0106C13.079 37.348 11.5948 37.6507 11.5707 37.6831C11.5464 37.7155 11.3778 38.5316 11.1956 39.4961C11.0135 40.4609 10.6627 41.7455 10.4159 42.3506L9.96729 43.451L8.16085 43.6526C6.11042 43.8815 5.65205 44.1232 5.2442 45.191C4.80236 46.3477 4.96102 47.4237 5.71271 48.3675C5.9771 48.6995 6.24375 48.8207 6.82532 48.8724C7.24596 48.9101 12.8098 48.4083 19.1895 47.7577L30.7889 46.5749L31.0555 47.0641C32.4324 49.5908 34.2535 51.1064 36.7188 51.7775C37.6568 52.0328 40.589 52.0319 41.5293 51.7762C43.9894 51.1068 45.8121 49.589 47.188 47.0641L47.4547 46.5749L59.0541 47.7577C65.4338 48.4083 70.9976 48.9101 71.4182 48.8724C71.9979 48.8208 72.2683 48.6986 72.5354 48.3675C73.5157 47.1524 73.4448 45.2569 72.3823 44.2785C72.0137 43.939 71.6536 43.8352 70.3603 43.6955C69.495 43.6019 68.7237 43.4971 68.6464 43.4625C68.3579 43.3335 67.6275 41.1538 67.311 39.4773C67.1309 38.523 66.965 37.7173 66.9423 37.6869C66.9197 37.6564 65.2256 37.3113 63.1776 36.9199C59.1726 36.1548 55.4888 35.3327 51.4545 34.3039C49.0743 33.697 48.8005 33.663 46.9214 33.7409C45.4015 33.8042 44.6823 33.9178 43.9251 34.2143C42.5369 34.758 41.031 35.8559 40.0699 37.0248L39.2551 38.0159L38.4218 36.9995C37.5155 35.8939 35.7422 34.6306 34.3887 34.126C33.5949 33.8302 29.7449 33.6003 28.989 33.8035ZM33.0544 36.8259C33.8361 37.0091 34.5921 37.3338 35.2698 37.7577C36.3239 38.4169 37.5606 39.5984 37.9935 40.9176C38.1539 41.4067 40.3148 41.5549 40.5939 40.9176C40.997 39.7156 41.8826 38.6435 43.168 37.8216C44.6872 36.85 45.4423 36.6434 47.388 36.6667C48.749 36.683 49.568 36.8207 51.8545 37.4174C55.3967 38.3416 57.8871 38.8998 61.5873 39.5988C63.2005 39.9034 64.6635 40.2131 64.8385 40.2869C65.0864 40.3914 65.236 40.7243 65.519 41.8016C65.8316 42.992 65.8519 43.1823 65.6659 43.1823C65.5474 43.1823 61.048 42.7398 55.6675 42.1992C45.8936 41.2171 45.8841 41.2165 45.3153 41.5549C44.8151 41.8521 44.6887 42.0553 44.2753 43.2263C43.355 45.8325 41.9744 46.7888 39.1255 46.7937C36.3757 46.7983 34.8392 45.787 34.053 43.4543C33.661 42.2915 33.268 41.7016 32.6886 41.4067C32.4149 41.2673 29.8477 41.4687 22.5577 42.2012C17.1872 42.7407 12.7497 43.1823 12.6963 43.1823C12.6429 43.1823 12.7097 42.8364 12.8445 42.4135C12.9793 41.9908 13.1327 41.3812 13.1854 41.0589C13.2446 40.6969 13.3911 40.4177 13.5688 40.3287C13.727 40.2493 14.8464 40.0047 16.0563 39.7852C18.9844 39.2537 23.2907 38.3033 26.3224 37.5191C30.3552 36.4761 31.1937 36.3897 33.0544 36.8259Z" fill="#E2E7E9"/>
<path fill-rule="evenodd" clip-rule="evenodd" d="M25.8098 34.6326C26.8384 34.3736 27.8894 34.0992 28.989 33.8035C29.7449 33.6003 33.5949 33.8302 34.3887 34.126C35.7422 34.6306 37.5155 35.8939 38.4218 36.9995L39.2551 38.0159L40.0699 37.0248C41.031 35.8559 42.5369 34.758 43.9251 34.2143C44.6823 33.9178 45.4015 33.8042 46.9214 33.7409C48.8005 33.663 49.0743 33.697 51.4545 34.3039C51.9653 34.4342 52.4702 34.5611 52.9711 34.6851C52.8571 34.0748 52.6716 33.4783 52.4173 32.9083C51.9606 31.8843 51.2924 30.9686 50.4565 30.2214C50.2961 29.0144 49.9393 27.8418 49.4004 26.75C50.9114 23.7589 52.0145 20.5788 52.6804 17.2945C53.1606 14.8026 53.4764 11.4062 52.2512 9.37852C51.9704 8.87914 51.5592 8.46536 51.0616 8.18131C50.5641 7.89726 49.9987 7.7536 49.4259 7.76565C45.4631 7.76565 43.0191 14.6128 41.62 20.7564C40.1465 20.4529 38.6266 20.4529 37.1531 20.7564C35.754 14.6128 33.31 7.76565 29.3472 7.76565C28.7748 7.75313 28.2098 7.89607 27.7123 8.17925C27.2148 8.46243 26.8034 8.87524 26.5219 9.37373C25.2951 11.4014 25.6141 14.7978 26.0927 17.2897C26.7581 20.5756 27.8613 23.7574 29.3727 26.75C28.8333 27.8433 28.4765 29.0176 28.3166 30.2262C27.5174 30.9416 26.8708 31.8109 26.4153 32.782C26.138 33.3732 25.935 33.9948 25.8098 34.6326ZM36.2461 33.2199C36.4214 32.9576 36.515 32.6491 36.515 32.3336C36.515 31.9105 36.3469 31.5047 36.0477 31.2055C35.7485 30.9064 35.3427 30.7383 34.9196 30.7383C34.6041 30.7383 34.2957 30.8319 34.0333 31.0071C33.771 31.1824 33.5665 31.4316 33.4458 31.7231C33.325 32.0146 33.2934 32.3354 33.355 32.6448C33.4165 32.9543 33.5685 33.2386 33.7916 33.4617C34.0147 33.6848 34.2989 33.8367 34.6084 33.8983C34.9179 33.9598 35.2386 33.9282 35.5301 33.8075C35.8217 33.6867 36.0708 33.4823 36.2461 33.2199ZM42.9671 31.0071C43.2295 30.8319 43.5379 30.7383 43.8534 30.7383C44.2766 30.7383 44.6823 30.9064 44.9815 31.2055C45.2807 31.5047 45.4488 31.9105 45.4488 32.3336C45.4488 32.6491 45.3552 32.9576 45.1799 33.2199C45.0046 33.4823 44.7555 33.6867 44.4639 33.8075C44.1724 33.9282 43.8517 33.9598 43.5422 33.8983C43.2327 33.8367 42.9485 33.6848 42.7254 33.4617C42.5023 33.2386 42.3503 32.9543 42.2888 32.6448C42.2272 32.3354 42.2588 32.0146 42.3796 31.7231C42.5003 31.4316 42.7048 31.1824 42.9671 31.0071Z" fill="#E2E7E9"/>
<path d="M6.16326 21.0797C6.0566 20.9286 5.99955 20.7482 6.00001 20.5633C6.00047 20.3784 6.05842 20.1982 6.16583 20.0477C6.27727 19.8952 6.43158 19.7795 6.60988 19.716L7.78686 19.3329C8.08187 19.2346 8.34997 19.069 8.57001 18.8493C8.79004 18.6296 8.95597 18.3618 9.0547 18.067L9.44046 16.8748C9.50428 16.6985 9.62182 16.5467 9.7765 16.4408C9.93118 16.3348 10.1152 16.2801 10.3027 16.2842C10.4901 16.2884 10.6715 16.3513 10.8213 16.464C10.9712 16.5767 11.0818 16.7335 11.1378 16.9125L11.5218 18.091C11.62 18.3861 11.7855 18.6543 12.0053 18.8745C12.225 19.0946 12.493 19.2607 12.7879 19.3595L13.9778 19.7469C14.1531 19.8093 14.3046 19.9247 14.4112 20.0772C14.5178 20.2297 14.5742 20.4116 14.5726 20.5976C14.571 20.7836 14.5114 20.9645 14.4022 21.1151C14.293 21.2657 14.1395 21.3786 13.9632 21.4379L12.7631 21.8296C12.476 21.928 12.215 22.0901 11.9997 22.3039C11.7844 22.5177 11.6204 22.7775 11.5201 23.0638L11.1369 24.2552C11.0744 24.4304 10.9589 24.5818 10.8064 24.6883C10.6539 24.7949 10.472 24.8513 10.286 24.8498C10.0999 24.8483 9.91896 24.7889 9.76822 24.6799C9.61748 24.5709 9.50442 24.4177 9.44474 24.2415L9.06327 23.0638C8.96483 22.7672 8.79813 22.4978 8.57658 22.2774C8.35504 22.0569 8.08484 21.8915 7.78771 21.7945L6.59531 21.4071C6.42043 21.3454 6.26956 21.2305 6.16326 21.0797Z" fill="#E2E7E9"/>
<path d="M70.0075 33.8833C70.023 33.9863 70.0623 34.0842 70.1222 34.1694C70.2021 34.282 70.315 34.3669 70.4454 34.4126L71.0902 34.6233C71.2227 34.6657 71.3426 34.739 71.4417 34.8381C71.54 34.9364 71.6142 35.0563 71.6592 35.1895L71.8649 35.8249C71.9085 35.9578 71.9927 36.0737 72.1058 36.1561C72.2188 36.2385 72.3549 36.2832 72.4948 36.2839C72.6348 36.2847 72.7713 36.2414 72.8853 36.1602C72.9992 36.079 73.0846 35.964 73.1295 35.8316L73.3395 35.1879C73.3847 35.0582 73.4593 34.9408 73.5574 34.8447C73.6556 34.7487 73.7746 34.6766 73.9051 34.6341L74.5399 34.4284C74.673 34.3851 74.789 34.301 74.8716 34.1881C74.9541 34.0752 74.9991 33.9392 75 33.7993C75.0009 33.6595 74.9578 33.5229 74.8767 33.4089C74.7956 33.2949 74.6807 33.2093 74.5483 33.1643L73.9043 32.9544C73.7729 32.91 73.6535 32.8357 73.5555 32.7375C73.4575 32.6393 73.3836 32.5197 73.3395 32.3882L73.1312 31.7519C73.0894 31.618 73.0064 31.5006 72.894 31.4165C72.7815 31.3325 72.6454 31.2861 72.505 31.284C72.3646 31.2819 72.2272 31.3241 72.1122 31.4047C71.9973 31.4853 71.9108 31.6001 71.8649 31.7328L71.655 32.3757C71.6117 32.5072 71.5384 32.6272 71.4384 32.7254C71.3397 32.8232 71.2201 32.8972 71.0885 32.9419L70.4537 33.1485C70.3552 33.1822 70.2658 33.2384 70.1928 33.3127C70.1197 33.3869 70.065 33.4771 70.0328 33.5761C70.0006 33.6752 69.992 33.7803 70.0075 33.8833Z" fill="#E2E7E9"/>
</svg>
