<svg width="24" height="25" viewBox="0 0 24 25" fill="none" xmlns="http://www.w3.org/2000/svg">
<path fill-rule="evenodd" clip-rule="evenodd" d="M5 6.28394C4.73478 6.28394 4.48043 6.38929 4.29289 6.57683C4.21971 6.65002 4.15904 6.73338 4.11226 6.82359L12 12.0821L19.8877 6.82359C19.841 6.73338 19.7803 6.65002 19.7071 6.57683C19.5196 6.38929 19.2652 6.28394 19 6.28394H5ZM20 9.15245L12.5547 14.116C12.2188 14.3399 11.7812 14.3399 11.4453 14.116L4 9.15245V17.2839C4 17.5492 4.10536 17.8035 4.29289 17.991C4.48043 18.1786 4.73478 18.2839 5 18.2839H19C19.2652 18.2839 19.5196 18.1786 19.7071 17.991C19.8946 17.8035 20 17.5492 20 17.2839V9.15245ZM2.87868 5.16262C3.44129 4.60001 4.20435 4.28394 5 4.28394H19C19.7957 4.28394 20.5587 4.60001 21.1213 5.16262C21.6839 5.72522 22 6.48829 22 7.28394V17.2839C22 18.0796 21.6839 18.8426 21.1213 19.4053C20.5587 19.9679 19.7957 20.2839 19 20.2839H5C4.20435 20.2839 3.44129 19.9679 2.87868 19.4053C2.31607 18.8426 2 18.0796 2 17.2839V7.28394C2 6.48829 2.31607 5.72522 2.87868 5.16262Z" fill="#F8FBFB"/>
</svg>
