<svg width="40" height="41" viewBox="0 0 40 41" fill="none" xmlns="http://www.w3.org/2000/svg">
<path d="M17.6057 1.04571C18.311 0.548008 19.1536 0.281799 20.017 0.283947C20.8804 0.286098 21.7218 0.556503 22.4245 1.05771C23.137 1.57769 23.6773 2.29766 23.9735 3.12963L25.7625 8.62142C26.2216 9.99793 26.9947 11.2489 28.0206 12.2756C29.0465 13.3023 30.2973 14.0765 31.674 14.5372L37.2413 16.3371C38.0645 16.635 38.7733 17.1834 39.268 17.9051C39.7628 18.6269 40.0184 19.4855 39.999 20.3602C39.9795 21.2348 39.686 22.0813 39.1596 22.7804C38.6333 23.4794 37.9008 23.9958 37.0652 24.2568L31.562 26.0488C30.1838 26.507 28.9313 27.2794 27.9032 28.3047C26.8752 29.33 26.0998 30.5802 25.6384 31.9565L23.8294 37.5083C23.5381 38.3263 22.9989 39.0331 22.2869 39.5305C21.5749 40.028 20.7255 40.2913 19.8568 40.2838C18.9881 40.2763 18.1433 39.9984 17.44 39.4888C16.7367 38.9792 16.2098 38.2632 15.9327 37.4403L14.1036 31.8405C13.6444 30.5011 12.8872 29.2833 11.8889 28.2787C10.8906 27.2741 9.67722 26.5089 8.34017 26.0408L2.77686 24.2528C1.95876 23.9611 1.25184 23.422 0.754255 22.7105C0.256667 21.999 -0.00690284 21.1503 0.000137453 20.2822C0.00717775 19.4142 0.284479 18.5699 0.793542 17.8665C1.30261 17.1631 2.01817 16.6356 2.8409 16.3571L8.34017 14.5772C9.72528 14.1178 10.9832 13.34 12.0127 12.3063C13.0422 11.2726 13.8146 10.0118 14.2677 8.62542L16.0768 3.06163C16.3649 2.24566 16.9013 1.54169 17.6057 1.04571Z" fill="#9547A5"/>
</svg>
