<svg width="24" height="25" viewBox="0 0 24 25" fill="none" xmlns="http://www.w3.org/2000/svg">
<g clip-path="url(#clip0_3244_3193)">
<path d="M12 2.28394C17.523 2.28394 22 6.76094 22 12.2839C22 17.8069 17.523 22.2839 12 22.2839C10.298 22.2863 8.62371 21.8525 7.137 21.0239L6.832 20.8459L3.8 21.7379C3.635 21.7866 3.46032 21.7922 3.29252 21.7544C3.12471 21.7166 2.96934 21.6366 2.84114 21.5219C2.71293 21.4072 2.61614 21.2617 2.55994 21.0991C2.50374 20.9365 2.48999 20.7623 2.52 20.5929L2.546 20.4839L3.438 17.4519C2.49505 15.8932 1.99768 14.1057 2 12.2839C2 6.76094 6.477 2.28394 12 2.28394ZM12 4.28394C10.5676 4.28368 9.16146 4.66799 7.92833 5.39675C6.6952 6.12551 5.68036 7.17198 4.98976 8.42688C4.29917 9.68178 3.95816 11.0991 4.00236 12.5308C4.04655 13.9625 4.47432 15.356 5.241 16.5659C5.439 16.8779 5.524 17.2619 5.457 17.6429L5.418 17.8059L4.977 19.3069L6.478 18.8659C6.911 18.7379 7.361 18.8159 7.718 19.0429C8.76633 19.7067 9.95469 20.1176 11.1891 20.243C12.4236 20.3684 13.6703 20.2049 14.8307 19.7655C15.9911 19.3261 17.0334 18.6228 17.8752 17.7112C18.717 16.7996 19.3351 15.7047 19.6809 14.513C20.0266 13.3214 20.0904 12.0656 19.8672 10.845C19.6441 9.62447 19.14 8.47254 18.395 7.48031C17.6499 6.48809 16.6843 5.68277 15.5744 5.12802C14.4645 4.57327 13.2408 4.28429 12 4.28394ZM9.102 7.46794C9.21282 7.42048 9.33402 7.40245 9.45385 7.41559C9.57369 7.42873 9.6881 7.47259 9.786 7.54294C10.29 7.91094 10.69 8.40493 11.034 8.88694L11.361 9.36094L11.514 9.58594C11.6026 9.71489 11.6461 9.86951 11.6378 10.0258C11.6295 10.182 11.5698 10.3311 11.468 10.4499L11.393 10.5259L10.469 11.2119C10.425 11.2445 10.3941 11.2917 10.3819 11.3451C10.3696 11.3984 10.3767 11.4544 10.402 11.5029C10.612 11.8829 10.983 12.4499 11.409 12.8759C11.836 13.3019 12.429 13.6979 12.835 13.9309C12.923 13.9809 13.029 13.9649 13.101 13.8999L13.139 13.8549L13.74 12.9399C13.8502 12.7927 14.0131 12.694 14.1946 12.6646C14.3761 12.6351 14.5619 12.6772 14.713 12.7819L15.256 13.1609C15.796 13.5459 16.315 13.9599 16.726 14.4849C16.802 14.5836 16.8504 14.7008 16.866 14.8243C16.8817 14.9479 16.8641 15.0734 16.815 15.1879C16.419 16.1119 15.416 16.8989 14.374 16.8609L14.215 16.8509L14.024 16.8329L13.916 16.8189L13.678 16.7789C12.754 16.6049 11.273 16.0809 9.738 14.5469C8.204 13.0119 7.68 11.5309 7.506 10.6069L7.466 10.3689L7.441 10.1609L7.428 9.98594L7.424 9.91094C7.386 8.86694 8.177 7.86394 9.102 7.46794Z" fill="#F8FBFB"/>
</g>
<defs>
<clipPath id="clip0_3244_3193">
<rect width="24" height="24" fill="white" transform="translate(0 0.283936)"/>
</clipPath>
</defs>
</svg>
